<mxfile host="app.diagrams.net" modified="2023-10-13T03:14:01.532Z" agent="Mozilla/5.0 (Macintosh; Intel Mac OS X 10_15_7) AppleWebKit/605.1.15 (KHTML, like Gecko) Version/17.0 Safari/605.1.15" version="22.0.4" etag="k-sKHPUBxvF4POptG9rE" type="github">
  <diagram name="Page-1" id="vP-RIFHXkS91NoXURJxh">
    <mxGraphModel>
      <root>
        <mxCell id="0" />
        <mxCell id="1" parent="0" />
      </root>
    </mxGraphModel>
  </diagram>
</mxfile>
